<!-- Generator: Adobe Illustrator 19.2.1, SVG Export Plug-In  -->
<svg version="1.1"
	 xmlns="http://www.w3.org/2000/svg" xmlns:xlink="http://www.w3.org/1999/xlink" xmlns:a="http://ns.adobe.com/AdobeSVGViewerExtensions/3.0/"
	 x="0px" y="0px" width="147.9px" height="47.7px" viewBox="0 0 147.9 47.7" style="enable-background:new 0 0 147.9 47.7;"
	 xml:space="preserve">
<style type="text/css">
	.st0{fill:#6D3400;}
	.st1{fill:url(#SVGID_1_);}
	.st2{fill:url(#SVGID_2_);}
	.st3{fill:url(#SVGID_3_);}
	.st4{fill:url(#SVGID_4_);}
	.st5{fill:url(#SVGID_5_);}
	.st6{fill:url(#SVGID_6_);}
	.st7{fill:url(#SVGID_7_);}
	.st8{fill:url(#SVGID_8_);}
</style>
<defs>
</defs>
<g>
	<path class="st0" d="M32.8,0H1.3L1,1.6c-0.7,3.2-1,6.5-1,9.9c0,6.6,1.3,13,3.7,18c0,2.7,0.7,5.4,1.8,7.7c-1,1.4-1.6,3-1.8,4.6
		c0,0.2,0,0.4-0.1,0.6l0,0.5l0,0.1c0.6,3.4,7.6,4.6,13.4,4.6c5.8,0,12.5-1.2,13.1-4.6L29.9,43v-0.4l0.3-0.1c0-0.2,0.1-0.4,0.1-0.6
		c-0.2-1.6-0.7-3.2-1.7-4.6c1.2-2.3,1.8-4.9,1.9-7.7c2.4-5,3.7-11.4,3.7-18c0-3.4-0.3-6.8-1-10L32.8,0z M28.3,29.3
		c0,0.1,0,0.1,0,0.2c0,3-0.8,5.8-2.1,8c1.1,1.3,1.2,2.9,1.4,4.6c0,0.2-0.6,0.3-0.6,0.5v0.2c0,1.7-4.5,3-10.5,3c-6,0-10.5-1.3-10.5-3
		v-0.2c0-0.2,0-0.3,0-0.5c0.2-1.7,0.9-3.3,2.1-4.6c-1.3-2.2-2.1-5-2.1-8c0-0.1,0-0.1,0-0.2c-2-4.7-3.7-10.9-3.7-17.7
		c0-3.4,0.3-6.6,1-9.6H31c0.6,3,1,6.2,1,9.6C32,18.4,30.6,24.6,28.3,29.3z"/>
	<linearGradient id="SVGID_1_" gradientUnits="userSpaceOnUse" x1="17.0965" y1="11" x2="17.0965" y2="44.2272">
		<stop  offset="0" style="stop-color:#6D3400"/>
		<stop  offset="1" style="stop-color:#AC3400"/>
	</linearGradient>
	<path class="st1" d="M8.7,28.5c0,0.1,0,0.3,0,0.3c0,2.9,0.6,5.7,1.6,7.9c-0.9,1.3-1.8,2.9-1.9,4.5c0,0.2-0.4,0.4-0.4,0.5V42
		c0,1.6,4.5,2.2,9,2.2s8-0.6,9-2.2v-0.2c0-0.2-0.2-0.3-0.3-0.5c-0.2-1.7-0.8-3.2-1.7-4.5c1-2.2,1.6-4.9,1.6-7.8c0-0.1,0-0.4,0-0.5
		c1.7-4.6,4.3-10.5,4.3-17.5H4.4C4.4,18,6.9,23.9,8.7,28.5z"/>
	<path class="st0" d="M70.8,0H39.3l-0.3,1.6c-0.7,3.2-1,6.5-1,9.9c0,6.6,1.3,13,3.7,18c0,2.7,0.7,5.4,1.8,7.7c-1,1.4-1.6,3-1.8,4.6
		c0,0.2,0,0.4-0.1,0.6l0,0.5l0,0.1c0.6,3.4,7.6,4.6,13.4,4.6s12.5-1.2,13.1-4.6L67.9,43v-0.4l0.2-0.1c0-0.2,0.1-0.4,0.1-0.6
		c-0.2-1.6-0.7-3.2-1.7-4.6c1.2-2.3,1.8-4.9,1.9-7.7c2.4-5,3.7-11.4,3.7-18c0-3.4-0.3-6.8-1-10L70.8,0z M66.2,29.3
		c0,0.1,0,0.1,0,0.2c0,3-0.8,5.8-2.1,8c1.1,1.3,1.8,2.9,2,4.6c0,0.2-0.1,0.3-0.1,0.5v0.2c-1,1.7-5.5,3-11.5,3c-6,0-11.5-1.3-11.5-3
		v-0.2c0-0.2,0.5-0.3,0.5-0.5c0.2-1.7,1.2-3.3,2.3-4.6c-1.3-2.2-2-5-2-8c0-0.1,0.1-0.1,0.1-0.2c-2.3-4.7-3.7-10.9-3.7-17.7
		c0-3.4,0.4-6.6,1-9.6h27.8c0.6,3,1,6.2,1,9.6C69.9,18.4,68.5,24.6,66.2,29.3z"/>
	<linearGradient id="SVGID_2_" gradientUnits="userSpaceOnUse" x1="55.01" y1="11" x2="55.01" y2="44.2272">
		<stop  offset="0" style="stop-color:#6D3400"/>
		<stop  offset="1" style="stop-color:#AC3400"/>
	</linearGradient>
	<path class="st2" d="M46.6,28.5c0,0.1,0,0.3,0,0.3c0,2.9,0.6,5.7,1.6,7.9c-0.9,1.3-1.7,2.9-1.9,4.5c0,0.2-0.4,0.4-0.4,0.5V42
		c1,1.6,4,2.2,8.5,2.2c4.5,0,8.5-0.6,8.5-2.2v-0.2c0-0.2,0.2-0.3,0.2-0.5c-0.2-1.7-0.6-3.2-1.4-4.5c1-2.2,1.7-4.9,1.7-7.8
		c0-0.1,0-0.4,0-0.5c1.7-4.6,4.3-10.5,4.3-17.5H42.3C42.3,18,44.9,23.9,46.6,28.5z"/>
	<path class="st0" d="M108.7,0H77.2l-0.3,1.6c-0.7,3.2-1,6.5-1,9.9c0,6.6,1.3,13,3.7,18c0,2.7,0.7,5.4,1.8,7.7c-1,1.4-1.6,3-1.8,4.6
		c0,0.2,0,0.4-0.1,0.6l0,0.5l0,0.1c0.6,3.4,7.6,4.6,13.4,4.6c5.8,0,12.6-1.2,13.2-4.6l-0.2-0.1v-0.4l0.2-0.1c0-0.2,0.1-0.4,0-0.6
		c-0.2-1.6-0.8-3.2-1.7-4.6c1.2-2.3,1.8-4.9,1.9-7.7c2.4-5,3.7-11.4,3.7-18c0-3.4-0.3-6.8-1-10L108.7,0z M104.1,29.3
		c0,0.1,0,0.1,0,0.2c0,3-0.8,5.8-2.1,8c1.1,1.3,1.8,2.9,2,4.6c0,0.2,0,0.3,0,0.5v0.2c0,1.7-5,3-11,3c-6,0-11-1.3-11-3v-0.2
		c0-0.2-0.1-0.3,0-0.5c0.2-1.7,0.9-3.3,2-4.6c-1.3-2.2-2.2-5-2.2-8c0-0.1,0-0.1,0-0.2c-2.3-4.7-3.7-10.9-3.7-17.7
		c0-3.4,0.3-6.6,1-9.6h27.8c0.6,3,1,6.2,1,9.6C107.8,18.4,106.4,24.6,104.1,29.3z"/>
	<linearGradient id="SVGID_3_" gradientUnits="userSpaceOnUse" x1="92.9235" y1="11" x2="92.9235" y2="44.2272">
		<stop  offset="0" style="stop-color:#6D3400"/>
		<stop  offset="1" style="stop-color:#AC3400"/>
	</linearGradient>
	<path class="st3" d="M84.5,28.5c0,0.1,0,0.3,0,0.3c0,2.9,0.6,5.7,1.6,7.9c-0.9,1.3-1.7,2.9-1.9,4.5c0,0.2-0.3,0.4-0.3,0.5V42
		c0,1.6,4,2.2,8.5,2.2c4.5,0,7.5-0.6,8.5-2.2v-0.2c0-0.2,0.2-0.3,0.2-0.5c-0.2-1.7-0.6-3.2-1.5-4.5c1-2.2,1.7-4.9,1.7-7.8
		c0-0.1,0-0.4,0-0.5c1.7-4.6,4.3-10.5,4.3-17.5H80.2C80.2,18,82.8,23.9,84.5,28.5z"/>
	<path class="st0" d="M147.9,11.6c0-3.4-0.3-6.8-1-10L146.6,0h-31.5l-0.3,1.6c-0.7,3.2-1,6.5-1,9.9c0,6.6,1.3,13,3.7,18
		c0,2.7,0.7,5.4,1.8,7.7c-1,1.4-1.6,3-1.8,4.6c0,0.2,0,0.4-0.1,0.6l0,0.5l0,0.1c0.6,3.4,7.6,4.6,13.4,4.6c5.8,0,12.1-1.2,12.7-4.6
		l-0.6-0.1v-0.4l0.6-0.1c0-0.2,0.3-0.4,0.3-0.6c-0.2-1.6-0.6-3.2-1.6-4.6c1.2-2.3,1.9-4.9,1.9-7.7C146.5,24.6,147.9,18.2,147.9,11.6
		z M142,29.5c0,3-0.8,5.8-2.1,8c1.1,1.3,1.9,2.9,2.1,4.6c0,0.2,0,0.3,0,0.5v0.2c-1,1.7-5.5,3-11.5,3c-6,0-10.5-1.3-11.5-3v-0.2
		c0-0.2,0.4-0.3,0.4-0.5c0.2-1.7,1.1-3.3,2.3-4.6c-1.3-2.2-2-5-2-8c0-0.1,0-0.1,0-0.2c-2.3-4.7-3.7-10.9-3.7-17.7
		c0-3.4,0.4-6.6,1-9.6h27.8c0.6,3,1,6.2,1,9.6c0,6.8-1.4,13-3.7,17.7C142,29.4,142,29.4,142,29.5z"/>
	<linearGradient id="SVGID_4_" gradientUnits="userSpaceOnUse" x1="130.837" y1="11" x2="130.837" y2="44.2272">
		<stop  offset="0" style="stop-color:#6D3400"/>
		<stop  offset="1" style="stop-color:#AC3400"/>
	</linearGradient>
	<path class="st4" d="M122.4,28.5c0,0.1,0,0.3,0,0.3c0,2.9,0.6,5.7,1.6,7.9c-0.9,1.3-1.7,2.9-1.8,4.5c0,0.2-0.3,0.4-0.3,0.5V42
		c0,1.6,4,2.2,8.5,2.2c4.5,0,8.5-0.6,8.5-2.2v-0.2c0-0.2,0.1-0.3,0.1-0.5c-0.2-1.7-0.8-3.2-1.6-4.5c1-2.2,1.5-4.9,1.5-7.8
		c0-0.1,0-0.3,0-0.4c2-4.6,4.6-10.6,4.6-17.6h-25.4C118.1,18,120.7,23.9,122.4,28.5z"/>
</g>
</svg>
