<!-- Generator: Adobe Illustrator 19.2.1, SVG Export Plug-In  -->
<svg version="1.1"
   xmlns="http://www.w3.org/2000/svg" xmlns:xlink="http://www.w3.org/1999/xlink" xmlns:a="http://ns.adobe.com/AdobeSVGViewerExtensions/3.0/"
   x="0px" y="0px" width="603px" height="82.5px" viewBox="0 0 603 82.5" enable-background="new 0 0 603 82.5" xml:space="preserve"
  >
<defs>
</defs>
<g>
  <g opacity="0.15">
    <path d="M29.5,8c20-0.1,27.6,7.9,27.7,25.3c0,3.6-1,10.6-5.3,15.4c4.4,2,7.6,7.3,7.6,13.9c0.1,13.2-5.7,19.6-25.7,19.7L7.5,82.5
      c-2,0-3.2-1.2-3.2-3.2L4,11.5c0-2.1,1-3.2,3.2-3.3L29.5,8z M31.3,40.7c5.1,0,7.6-0.7,7.6-7.3c0-6.6-2.6-7.2-7.7-7.2l-5.7,0
      c-2,0-3.2,1.1-3.2,3.2l0,8.1c0,2.1,1.2,3.2,3.2,3.2L31.3,40.7z M32.3,67.3c5.1,0,7.6-0.6,7.6-5.6S37.6,56,32.5,56l-6.9,0
      c-2,0-3.2,1.1-3.2,3.2l0,4.9c0,2.1,1.2,3.2,3.2,3.2L32.3,67.3z"/>
    <path d="M114,7.6c2.1,0,3.2,1,3.2,3.2l0.1,11.9c0,2-1,3.2-3.2,3.2L88.4,26c-2,0-3.2,1.1-3.2,3.2l0,3.4c0,2,1.2,3.2,3.2,3.2
      l16.5-0.1c2.1,0,3.2,1,3.2,3.2l0.1,11.9c0,2-1,3.2-3.2,3.2L88.5,54c-2,0-3.2,1.1-3.2,3.2l0,3.4c0,2,1.2,3.2,3.2,3.2l25.7-0.1
      c2.1,0,3.2,1,3.2,3.2l0.1,11.9c0,2.1-1,3.2-3.2,3.2l-44.6,0.2c-2,0-3.2-1.2-3.2-3.2L66.2,11c0-2.1,1.2-3.2,3.2-3.2L114,7.6z"/>
    <path d="M173.1,7.3c2.1,0,3.2,1,3.2,3.2l0.1,11.9c0,2-1,3.2-3.2,3.2l-25.7,0.1c-2,0-3.2,1.1-3.2,3.2l0,3.4c0,2,1.2,3.2,3.2,3.2
      l16.5-0.1c2.1,0,3.2,1,3.2,3.2l0.1,11.9c0,2-1,3.2-3.2,3.2l-16.5,0.1c-2,0-3.2,1.1-3.2,3.2l0,3.4c0,2,1.2,3.2,3.2,3.2l25.7-0.1
      c2.1,0,3.2,1,3.2,3.2l0.1,11.9c0,2.1-1,3.2-3.2,3.2l-44.6,0.2c-2,0-3.2-1.2-3.2-3.2l-0.3-67.9c0-2.1,1.2-3.2,3.2-3.2L173.1,7.3z"
      />
    <path d="M240.8,75.5c1.5,2.8-0.2,5.7-3.5,5.8l-12.1,0.1c-1.1,0-2-0.5-2.4-1.5l-11.1-21.3c-0.2-0.3-0.5-0.5-0.9-0.5l-4.2,0
      c-1.9,0-3.3,1.4-3.3,3.3l0.1,16.8c0,1.9-1.4,3.3-3.3,3.3l-11.9,0.1c-1.9,0-3.3-1.4-3.3-3.3l-0.3-67.7c0-1.9,1.4-3.3,3.3-3.3
      L211,7.1c18.9-0.1,26.6,7.9,26.7,25.3c0.1,9.9-2.4,16.8-8,20.8c-0.4,0.3-0.5,0.9-0.3,1.4L240.8,75.5z M206.3,25.4
      c-1.9,0-3.3,1.4-3.3,3.3l0,7.9c0,1.9,1.4,3.3,3.3,3.3l5.4,0c5.1,0,7.6-0.7,7.6-7.3s-2.6-7.2-7.7-7.2L206.3,25.4z"/>
    <path d="M328.1,6.5c2.1,0,3.2,1,3.2,3.2l0.1,11.9c0,2-1,3.2-3.2,3.2l-26.8,0.1c-2,0-3.2,1.1-3.2,3.2l0,3.4c0,2,1.2,3.2,3.2,3.2
      l17.5-0.1c2.1,0,3.2,1,3.2,3.2l0.1,11.9c0,2-1,3.2-3.2,3.2l-17.5,0.1c-2,0-3.2,1.1-3.2,3.2l0.1,21.7c0,2-1,3.2-3.2,3.2l-12.5,0.1
      c-2,0-3.2-1.2-3.2-3.2L279.3,10c0-2.1,1.2-3.2,3.2-3.2L328.1,6.5z"/>
    <path d="M352.7,6.4c2.1,0,3.2,1,3.2,3.2l0.3,49.7c0,2,1.2,3.2,3.2,3.2l23.7-0.1c2.1,0,3.2,1,3.2,3.2l0.1,11.9c0,2.1-1,3.2-3.2,3.2
      l-41.9,0.2c-2,0-3.2-1.2-3.2-3.2l-0.3-67.9c0-2.1,1.2-3.2,3.2-3.2L352.7,6.4z"/>
    <path d="M407.4,6.1c2.1,0,3.2,1,3.2,3.2l0.3,67.9c0,2-1,3.2-3.2,3.2l-11.7,0.1c-2,0-3.2-1.2-3.2-3.2l-0.3-67.9
      c0-2.1,1.2-3.2,3.2-3.2L407.4,6.1z"/>
    <path d="M420.3,29.9c0-7,1.4-25.8,26.5-25.9c22.3-0.1,26.1,14.5,26.7,22.8c0.1,1.9-0.8,3.1-2.7,3.5l-12,2.7
      c-2.1,0.4-3.3-0.5-3.5-2.7c-0.5-5.1-2.3-8.1-8.3-8c-7.9,0-8.4,5-8.3,13.2l0.1,15.3c0,8.2,0.6,13.2,8.5,13.1s8.4-5,8.3-10.2l-6.2,0
      c-2,0-3.2-1.2-3.2-3.2l0-8.5c0-2.1,1.2-3.2,3.2-3.2l21.2-0.1c2.1,0,3.2,1,3.2,3.2l0.1,14.3c0,7-1.4,25.8-26.5,25.9
      s-26.7-18.7-26.8-25.7L420.3,29.9z"/>
    <path d="M497.9,5.7c2,0,3.2,1.2,3.2,3.2l0.1,26.5c0,2,1.2,3.2,3.2,3.2l10.2-0.1c2.1,0,3.2-1.2,3.2-3.2l-0.1-26.5
      c0-2,1.2-3.2,3.2-3.2l11.9-0.1c2.1,0,3.2,1,3.2,3.2l0.3,67.9c0,2-1,3.2-3.2,3.2l-11.9,0.1c-2,0-3.2-1.2-3.2-3.2l-0.1-16.8
      c0-2.1-1.1-3.2-3.2-3.2l-10.2,0.1c-2,0-3.2,1.1-3.2,3.2l0.1,16.8c0,2-1,3.2-3.2,3.2L486.4,80c-2,0-3.2-1.2-3.2-3.2l-0.3-67.9
      c0-2.1,1-3.2,3.2-3.2L497.9,5.7z"/>
    <path d="M563.6,26.8c0-2.1-1.1-3.2-3.2-3.2l-14.9,0.1c-2,0-3.2-1.2-3.2-3.2l-0.1-11.9c0-2.1,1.2-3.2,3.2-3.2l54.4-0.3
      c2.1,0,3.2,1,3.2,3.2l0.1,11.9c0,2-1,3.2-3.2,3.2L585,23.5c-2,0-3.2,1.1-3.2,3.2l0.3,49.7c0,2-1,3.2-3.2,3.2L567,79.6
      c-2,0-3.2-1.2-3.2-3.2L563.6,26.8z"/>
  </g>
  <g>
    <path fill="#FFFFFF" d="M25.5,4c20-0.1,27.6,7.9,27.7,25.3c0,3.6-1,10.6-5.3,15.4c4.4,2,7.6,7.3,7.6,13.9
      c0.1,13.2-5.7,19.6-25.7,19.7L3.5,78.5c-2,0-3.2-1.2-3.2-3.2L0,7.5c0-2.1,1-3.2,3.2-3.3L25.5,4z M27.3,36.7c5.1,0,7.6-0.7,7.6-7.3
      c0-6.6-2.6-7.2-7.7-7.2l-5.7,0c-2,0-3.2,1.1-3.2,3.2l0,8.1c0,2.1,1.2,3.2,3.2,3.2L27.3,36.7z M28.3,63.3c5.1,0,7.6-0.6,7.6-5.6
      S33.6,52,28.5,52l-6.9,0c-2,0-3.2,1.1-3.2,3.2l0,4.9c0,2.1,1.2,3.2,3.2,3.2L28.3,63.3z"/>
    <path fill="#FFFFFF" d="M110,3.6c2.1,0,3.2,1,3.2,3.2l0.1,11.9c0,2-1,3.2-3.2,3.2L84.4,22c-2,0-3.2,1.1-3.2,3.2l0,3.4
      c0,2,1.2,3.2,3.2,3.2l16.5-0.1c2.1,0,3.2,1,3.2,3.2l0.1,11.9c0,2-1,3.2-3.2,3.2L84.5,50c-2,0-3.2,1.1-3.2,3.2l0,3.4
      c0,2,1.2,3.2,3.2,3.2l25.7-0.1c2.1,0,3.2,1,3.2,3.2l0.1,11.9c0,2.1-1,3.2-3.2,3.2l-44.6,0.2c-2,0-3.2-1.2-3.2-3.2L62.2,7
      c0-2.1,1.2-3.2,3.2-3.2L110,3.6z"/>
    <path fill="#FFFFFF" d="M169.1,3.3c2.1,0,3.2,1,3.2,3.2l0.1,11.9c0,2-1,3.2-3.2,3.2l-25.7,0.1c-2,0-3.2,1.1-3.2,3.2l0,3.4
      c0,2,1.2,3.2,3.2,3.2l16.5-0.1c2.1,0,3.2,1,3.2,3.2l0.1,11.9c0,2-1,3.2-3.2,3.2l-16.5,0.1c-2,0-3.2,1.1-3.2,3.2l0,3.4
      c0,2,1.2,3.2,3.2,3.2l25.7-0.1c2.1,0,3.2,1,3.2,3.2l0.1,11.9c0,2.1-1,3.2-3.2,3.2l-44.6,0.2c-2,0-3.2-1.2-3.2-3.2l-0.3-67.9
      c0-2.1,1.2-3.2,3.2-3.2L169.1,3.3z"/>
    <path fill="#FFFFFF" d="M236.8,71.5c1.5,2.8-0.2,5.7-3.5,5.8l-12.1,0.1c-1.1,0-2-0.5-2.4-1.5l-11.1-21.3c-0.2-0.3-0.5-0.5-0.9-0.5
      l-4.2,0c-1.9,0-3.3,1.4-3.3,3.3l0.1,16.8c0,1.9-1.4,3.3-3.3,3.3l-11.9,0.1c-1.9,0-3.3-1.4-3.3-3.3l-0.3-67.7
      c0-1.9,1.4-3.3,3.3-3.3L207,3.1c18.9-0.1,26.6,7.9,26.7,25.3c0.1,9.9-2.4,16.8-8,20.8c-0.4,0.3-0.5,0.9-0.3,1.4L236.8,71.5z
       M202.3,21.4c-1.9,0-3.3,1.4-3.3,3.3l0,7.9c0,1.9,1.4,3.3,3.3,3.3l5.4,0c5.1,0,7.6-0.7,7.6-7.3s-2.6-7.2-7.7-7.2L202.3,21.4z"/>
    <path fill="#FFFFFF" d="M324.1,2.5c2.1,0,3.2,1,3.2,3.2l0.1,11.9c0,2-1,3.2-3.2,3.2l-26.8,0.1c-2,0-3.2,1.1-3.2,3.2l0,3.4
      c0,2,1.2,3.2,3.2,3.2l17.5-0.1c2.1,0,3.2,1,3.2,3.2l0.1,11.9c0,2-1,3.2-3.2,3.2l-17.5,0.1c-2,0-3.2,1.1-3.2,3.2l0.1,21.7
      c0,2-1,3.2-3.2,3.2l-12.5,0.1c-2,0-3.2-1.2-3.2-3.2L275.3,6c0-2.1,1.2-3.2,3.2-3.2L324.1,2.5z"/>
    <path fill="#FFFFFF" d="M348.7,2.4c2.1,0,3.2,1,3.2,3.2l0.3,49.7c0,2,1.2,3.2,3.2,3.2l23.7-0.1c2.1,0,3.2,1,3.2,3.2l0.1,11.9
      c0,2.1-1,3.2-3.2,3.2l-41.9,0.2c-2,0-3.2-1.2-3.2-3.2l-0.3-67.9c0-2.1,1.2-3.2,3.2-3.2L348.7,2.4z"/>
    <path fill="#FFFFFF" d="M403.4,2.1c2.1,0,3.2,1,3.2,3.2l0.3,67.9c0,2-1,3.2-3.2,3.2l-11.7,0.1c-2,0-3.2-1.2-3.2-3.2l-0.3-67.9
      c0-2.1,1.2-3.2,3.2-3.2L403.4,2.1z"/>
    <path fill="#FFFFFF" d="M416.3,25.9c0-7,1.4-25.8,26.5-25.9c22.3-0.1,26.1,14.5,26.7,22.8c0.1,1.9-0.8,3.1-2.7,3.5l-12,2.7
      c-2.1,0.4-3.3-0.5-3.5-2.7c-0.5-5.1-2.3-8.1-8.3-8c-7.9,0-8.4,5-8.3,13.2l0.1,15.3c0,8.2,0.6,13.2,8.5,13.1s8.4-5,8.3-10.2l-6.2,0
      c-2,0-3.2-1.2-3.2-3.2l0-8.5c0-2.1,1.2-3.2,3.2-3.2l21.2-0.1c2.1,0,3.2,1,3.2,3.2l0.1,14.3c0,7-1.4,25.8-26.5,25.9
      s-26.7-18.7-26.8-25.7L416.3,25.9z"/>
    <path fill="#FFFFFF" d="M493.9,1.7c2,0,3.2,1.2,3.2,3.2l0.1,26.5c0,2,1.2,3.2,3.2,3.2l10.2-0.1c2.1,0,3.2-1.2,3.2-3.2l-0.1-26.5
      c0-2,1.2-3.2,3.2-3.2l11.9-0.1c2.1,0,3.2,1,3.2,3.2l0.3,67.9c0,2-1,3.2-3.2,3.2l-11.9,0.1c-2,0-3.2-1.2-3.2-3.2l-0.1-16.8
      c0-2.1-1.1-3.2-3.2-3.2l-10.2,0.1c-2,0-3.2,1.1-3.2,3.2l0.1,16.8c0,2-1,3.2-3.2,3.2L482.4,76c-2,0-3.2-1.2-3.2-3.2l-0.3-67.9
      c0-2.1,1-3.2,3.2-3.2L493.9,1.7z"/>
    <path fill="#FFFFFF" d="M559.6,22.8c0-2.1-1.1-3.2-3.2-3.2l-14.9,0.1c-2,0-3.2-1.2-3.2-3.2l-0.1-11.9c0-2.1,1.2-3.2,3.2-3.2
      l54.4-0.3c2.1,0,3.2,1,3.2,3.2l0.1,11.9c0,2-1,3.2-3.2,3.2L581,19.5c-2,0-3.2,1.1-3.2,3.2l0.3,49.7c0,2-1,3.2-3.2,3.2L563,75.6
      c-2,0-3.2-1.2-3.2-3.2L559.6,22.8z"/>
  </g>
</g>
</svg>