<?xml version="1.0" encoding="utf-8"?>
<!-- Generator: Adobe Illustrator 19.2.1, SVG Export Plug-In . SVG Version: 6.00 Build 0)  -->
<!DOCTYPE svg PUBLIC "-//W3C//DTD SVG 1.1//EN" "http://www.w3.org/Graphics/SVG/1.1/DTD/svg11.dtd">
<svg version="1.1" id="Layer_1" xmlns="http://www.w3.org/2000/svg" xmlns:xlink="http://www.w3.org/1999/xlink" x="0px" y="0px"
	 viewBox="0 0 48 48" style="enable-background:new 0 0 48 48;" xml:space="preserve">
<style type="text/css">
	.st0{fill:#FFFFFF;}
</style>
<g>
	<path class="st0" d="M21.1,17.2c-0.2,0-0.3-0.1-0.4-0.2c-0.2-0.2-0.3-0.6,0-0.9l3.8-4c0.2-0.2,0.6-0.3,0.9,0c0.2,0.2,0.3,0.6,0,0.9
		l-3.8,4C21.5,17.2,21.3,17.2,21.1,17.2z M24.8,16.5l4.8-5c0.2-0.2,0.2-0.6,0-0.9c-0.2-0.2-0.6-0.2-0.9,0l-4.7,5
		c-0.2,0.2-0.2,0.6,0,0.9c0.1,0.1,0.3,0.2,0.4,0.2C24.6,16.7,24.7,16.7,24.8,16.5z M27.7,16.4l1.5-1.6c0.2-0.2,0.2-0.6,0-0.9
		c-0.2-0.2-0.6-0.2-0.9,0l-1.5,1.6c-0.2,0.2-0.2,0.6,0,0.9c0.1,0.1,0.3,0.2,0.4,0.2C27.5,16.6,27.6,16.5,27.7,16.4z M39.3,29.3
		c-0.8,1.7-2.9,3.4-5.4,3.8c-1.1,0.2-7.4,0.2-9,0c0,0-0.4,0-0.6-0.1c-0.8-0.2-1.5-0.6-2-1c-1.1,0.6-1.8,1.1-2.2,1.4
		c-0.1,0.1-0.4,0.2-0.9,0.2c-1.8-0.1-8.9-0.5-9.4-0.5c-0.4,0-0.5-0.3-0.6-0.4c0-0.1-1.1-3.3-1.2-3.6c-0.1-0.4-0.1-0.6,0.1-0.9
		c0.2-0.2,3.8-4.1,7.1-6.7c0,0,1.8-1.3,2.6-1.8c0.8-0.5,2.1-1.1,3.1-1.4c1.5-0.5,4-0.8,5.8-0.9s4.8,0.3,6.8,1.1
		c1.3,0.5,1.9,0.8,3.1,1.6c1.9,1.2,2.8,3,3.1,4.9C40,25.4,40.2,27.3,39.3,29.3z M16.5,22.6c1-0.5,2.4-1.2,3.2-1.3
		c2.1-0.2,4.3,0.2,5.1,0.3c0.4-0.3,1-0.7,1.4-1c-2.3-0.6-4.4-0.7-6.5-0.5c-1.2,0.6-2.6,1.7-3.3,2.3C16.2,22.7,16.3,22.7,16.5,22.6z
		 M39,25c-0.3-1.6-1.3-4.3-4.2-4.8c-1.2-0.2-2.1,0-2.5,0.1c-3,0.6-6.8,3-9.4,5.4c-1.6,1.5-3.5,3.5-3.8,3.8c-0.2,0.2-0.2,0.3-0.1,0.5
		s0.6,1.8,0.7,1.9c0.1,0.2,0.3,0.3,0.6,0.1c0.3-0.2,6-4.1,7-4.2c0.2,1.2,1.9,4.2,5.5,4.2c0.4,0,0.9,0,1.3-0.1
		C38.8,31,39.3,26.9,39,25z"/>
</g>
</svg>
