<!-- Generator: Adobe Illustrator 19.2.1, SVG Export Plug-In  -->
<svg version="1.1"
	 xmlns="http://www.w3.org/2000/svg" xmlns:xlink="http://www.w3.org/1999/xlink" xmlns:a="http://ns.adobe.com/AdobeSVGViewerExtensions/3.0/"
	 x="0px" y="0px" width="17.6px" height="17.6px" viewBox="0 0 17.6 17.6" style="enable-background:new 0 0 17.6 17.6;"
	 xml:space="preserve">
<style type="text/css">
	.st0{fill:#FFFFFF;}
</style>
<defs>
</defs>
<g id="_x37_46-plus-circle-toolbar-selected_x40_2x.png_2_">
	<g>
		<path class="st0" d="M10.3,8.8l6.9-6.9c0.4-0.4,0.4-1.1,0-1.5s-1.1-0.4-1.5,0L8.8,7.3L1.9,0.3c-0.4-0.4-1.1-0.4-1.5,0
			s-0.4,1.1,0,1.5l6.9,6.9l-6.9,6.9c-0.4,0.4-0.4,1.1,0,1.5c0.4,0.4,1.1,0.4,1.5,0l6.9-6.9l6.9,6.9c0.4,0.4,1.1,0.4,1.5,0
			c0.4-0.4,0.4-1.1,0-1.5L10.3,8.8z"/>
	</g>
</g>
</svg>
